<svg xmlns="http://www.w3.org/2000/svg" viewBox="0 0 240 240" width="240" height="240" style="color:#ff2d96"><defs><filter id="g" x="-120%" y="-120%" width="340%" height="340%"><feDropShadow dx="0" dy="0" stdDeviation="2.5" flood-color="currentColor" flood-opacity="0.95"></feDropShadow><feDropShadow dx="0" dy="0" stdDeviation="7" flood-color="currentColor" flood-opacity="0.5"></feDropShadow></filter></defs><path d="M100 50 C82 28 54 30 44 44 C30 62 30 96 38 132" fill="none" stroke="#05070a" stroke-width="5" stroke-linecap="round"></path><path d="M100 50 C82 28 54 30 44 44 C30 62 30 96 38 132" fill="none" stroke="#151a21" stroke-width="3" stroke-linecap="round"></path><path d="M100 50 C82 28 54 30 44 44 C30 62 30 96 38 132" fill="none" stroke="#222932" stroke-width="1" stroke-linecap="round" opacity="0.7"></path><path d="M140 50 C158 28 186 30 196 44 C210 62 210 96 202 132" fill="none" stroke="#05070a" stroke-width="5" stroke-linecap="round"></path><path d="M140 50 C158 28 186 30 196 44 C210 62 210 96 202 132" fill="none" stroke="#151a21" stroke-width="3" stroke-linecap="round"></path><path d="M140 50 C158 28 186 30 196 44 C210 62 210 96 202 132" fill="none" stroke="#222932" stroke-width="1" stroke-linecap="round" opacity="0.7"></path><path d="M108 46 C96 20 70 18 60 24 C44 32 40 60 46 100" fill="none" stroke="#05070a" stroke-width="5" stroke-linecap="round"></path><path d="M108 46 C96 20 70 18 60 24 C44 32 40 60 46 100" fill="none" stroke="#151a21" stroke-width="3" stroke-linecap="round"></path><path d="M108 46 C96 20 70 18 60 24 C44 32 40 60 46 100" fill="none" stroke="#222932" stroke-width="1" stroke-linecap="round" opacity="0.7"></path><path d="M132 46 C144 20 170 18 180 24 C196 32 200 60 194 100" fill="none" stroke="#05070a" stroke-width="5" stroke-linecap="round"></path><path d="M132 46 C144 20 170 18 180 24 C196 32 200 60 194 100" fill="none" stroke="#151a21" stroke-width="3" stroke-linecap="round"></path><path d="M132 46 C144 20 170 18 180 24 C196 32 200 60 194 100" fill="none" stroke="#222932" stroke-width="1" stroke-linecap="round" opacity="0.7"></path><path d="M112 44 C104 16 84 8 70 12 C58 16 56 30 62 46" fill="none" stroke="#05070a" stroke-width="5" stroke-linecap="round"></path><path d="M112 44 C104 16 84 8 70 12 C58 16 56 30 62 46" fill="none" stroke="#151a21" stroke-width="3" stroke-linecap="round"></path><path d="M112 44 C104 16 84 8 70 12 C58 16 56 30 62 46" fill="none" stroke="#222932" stroke-width="1" stroke-linecap="round" opacity="0.7"></path><path d="M128 44 C136 16 156 8 170 12 C182 16 184 30 178 46" fill="none" stroke="#05070a" stroke-width="5" stroke-linecap="round"></path><path d="M128 44 C136 16 156 8 170 12 C182 16 184 30 178 46" fill="none" stroke="#151a21" stroke-width="3" stroke-linecap="round"></path><path d="M128 44 C136 16 156 8 170 12 C182 16 184 30 178 46" fill="none" stroke="#222932" stroke-width="1" stroke-linecap="round" opacity="0.7"></path><path d="M116 48 C110 22 92 14 82 20 C74 24 74 34 80 46" fill="none" stroke="#05070a" stroke-width="5" stroke-linecap="round"></path><path d="M116 48 C110 22 92 14 82 20 C74 24 74 34 80 46" fill="none" stroke="#151a21" stroke-width="3" stroke-linecap="round"></path><path d="M116 48 C110 22 92 14 82 20 C74 24 74 34 80 46" fill="none" stroke="#222932" stroke-width="1" stroke-linecap="round" opacity="0.7"></path><path d="M124 48 C130 22 148 14 158 20 C166 24 166 34 160 46" fill="none" stroke="#05070a" stroke-width="5" stroke-linecap="round"></path><path d="M124 48 C130 22 148 14 158 20 C166 24 166 34 160 46" fill="none" stroke="#151a21" stroke-width="3" stroke-linecap="round"></path><path d="M124 48 C130 22 148 14 158 20 C166 24 166 34 160 46" fill="none" stroke="#222932" stroke-width="1" stroke-linecap="round" opacity="0.7"></path><path d="M120 44 C120 18 118 8 128 6" fill="none" stroke="#05070a" stroke-width="5" stroke-linecap="round"></path><path d="M120 44 C120 18 118 8 128 6" fill="none" stroke="#151a21" stroke-width="3" stroke-linecap="round"></path><path d="M120 44 C120 18 118 8 128 6" fill="none" stroke="#222932" stroke-width="1" stroke-linecap="round" opacity="0.7"></path>
  <path d="M22 240 L34 192 C50 166 86 158 120 158 C154 158 190 166 206 192 L218 240 Z" fill="#0e1218"></path>
  <path d="M34 240 L44 198 C58 178 82 172 92 172 L80 186 C64 198 56 216 58 240 Z" fill="#232a33" opacity="0.5"></path>
  <path d="M206 240 L196 198 C182 178 158 172 148 172 L160 186 C176 198 184 216 182 240 Z" fill="#232a33" opacity="0.5"></path>
  <path d="M78 176 C92 168 148 168 162 176 L162 182 C148 174 92 174 78 182 Z" fill="#1b222b"></path>
  <path d="M40 240 C44 208 54 192 72 182 L72 200 C60 210 54 224 54 240 Z" fill="#05070a" opacity="0.6"></path><rect x="102" y="150" width="36" height="16" fill="#1c2128"></rect>
  <path d="M64 100 C58 64 84 42 120 42 C156 42 182 64 176 100 L176 102 L64 102 Z" fill="#1c2128"></path>
  <path d="M72 74 C80 54 98 46 120 46 C108 50 92 60 84 82 Z" fill="#2a3038" opacity="0.85"></path>
  <line x1="120" y1="46" x2="120" y2="100" stroke="#0a0d12" stroke-width="1.5" opacity="0.7"></line>
  <path d="M64 96 C90 90 150 90 176 96" fill="none" stroke="#0a0d12" stroke-width="1.5" opacity="0.6"></path>
  <g transform="rotate(-6 160 78)"><rect x="150" y="62" width="24" height="26" rx="1.5" fill="#2a3038" stroke="#05070a" stroke-width="1"></rect><g fill="#4a525c"><circle cx="154" cy="66" r="1.6"></circle><circle cx="170" cy="66" r="1.6"></circle><circle cx="154" cy="84" r="1.6"></circle><circle cx="170" cy="84" r="1.6"></circle></g></g>
  
    <path d="M84 58 q14 -6 30 -2" fill="none" stroke="#0a0d12" stroke-width="2.5" opacity="0.6" stroke-linecap="round"></path>
    <path d="M150 66 q-8 8 -6 20" fill="none" stroke="#0a0d12" stroke-width="2" opacity="0.5"></path>
    <path d="M60 116 q-4 6 0 12" fill="none" stroke="#0a0d12" stroke-width="2" opacity="0.5"></path>
    <path d="M96 150 q10 4 22 2" fill="#4a2f1e" opacity="0.5"></path>
    <path d="M150 72 q6 2 10 8" fill="#4a2f1e" opacity="0.4"></path>
  
  <g><rect x="99" y="42" width="10" height="7" rx="1" fill="#0a0d12"></rect><rect x="115" y="40" width="10" height="7" rx="1" fill="#0a0d12"></rect><rect x="131" y="42" width="10" height="7" rx="1" fill="#0a0d12"></rect><circle cx="104" cy="45" r="1.4" fill="currentColor" opacity="0.6"></circle><circle cx="120" cy="43" r="1.4" fill="currentColor" opacity="0.6"></circle><circle cx="136" cy="45" r="1.4" fill="currentColor" opacity="0.6"></circle></g>
  
  <path d="M78 132 L162 132 L152 156 C142 165 98 165 88 156 Z" fill="#1c2128"></path>
  <path d="M78 132 L162 132 L160 137 L80 137 Z" fill="#2a3038" opacity="0.7"></path>
  <g fill="#05070a"><rect x="104" y="142" width="3.5" height="12" rx="1.5"></rect><rect x="112" y="143" width="3.5" height="13" rx="1.5"></rect><rect x="120" y="144" width="3.5" height="13" rx="1.5"></rect><rect x="128" y="143" width="3.5" height="13" rx="1.5"></rect><rect x="136" y="142" width="3.5" height="12" rx="1.5"></rect></g>
  
  <path d="M44 106 L52 102 L52 128 L44 124 Z" fill="#1c2128"></path><circle cx="48" cy="115" r="2" fill="#454d57"></circle>
  <path d="M196 106 L188 102 L188 128 L196 124 Z" fill="#1c2128"></path><circle cx="192" cy="115" r="2" fill="#454d57"></circle>
  <path d="M56 100 L184 100 L188 106 L188 128 L182 134 L58 134 L52 128 L52 106 Z" fill="#0f141a"></path>
  <path d="M56 100 L184 100 L188 106 L186 108 L58 108 L54 110 L52 106 Z" fill="#2e3640" opacity="0.8"></path>
  <g fill="#454d57"><circle cx="62" cy="129" r="1.8"></circle><circle cx="178" cy="129" r="1.8"></circle></g>
  
  <path d="M66 110 L174 110 L174 126 L66 126 Z" fill="#05070a"></path><path d="M64 100 C58 64 84 42 120 42" fill="none" stroke="currentColor" stroke-width="2.5" stroke-linecap="round" opacity="0.24" filter="url(#g)"></path><path d="M64 128 Q120 150 176 128 L176 136 Q120 160 64 136 Z" fill="currentColor" opacity="0.15" filter="url(#g)"></path><rect x="74" y="114.5" width="30" height="6" rx="3" fill="currentColor" filter="url(#g)"></rect><rect x="77" y="116" width="24" height="1.6" rx="0.8" fill="#ffffff" opacity="0.7"></rect><rect x="136" y="115" width="30" height="5" rx="2.5" fill="#2e2530"></rect><rect x="136" y="115" width="30" height="5" rx="2.5" fill="currentColor" opacity="0.18"></rect><path d="M114 112 L126 124 M126 112 L114 124" stroke="currentColor" stroke-width="1.8" filter="url(#g)" stroke-linecap="round"></path></svg>